<svg width="2053" height="615" xmlns="http://www.w3.org/2000/svg" xmlns:xlink="http://www.w3.org/1999/xlink" xml:space="preserve" overflow="hidden"><defs><clipPath id="clip0"><rect x="175" y="138" width="2053" height="615"/></clipPath></defs><g clip-path="url(#clip0)" transform="translate(-175 -138)"><path d="M175 609 432 194 689 609Z" fill="#92D050" fill-rule="evenodd"/><path d="M281 609 537.5 194 794 609Z" fill="#FFDE15" fill-rule="evenodd"/><path d="M386 609 642.5 194 899 609Z" fill="#3CAC04" fill-rule="evenodd"/><text fill="#3CAC04" font-family="ほのか新丸ゴシック,ほのか新丸ゴシック_MSFontService,sans-serif" font-weight="400" font-size="275" transform="matrix(1 0 0 1 895.963 512)">会津線</text><text fill="#3CAC04" font-family="MizoletBokutoh,MizoletBokutoh_MSFontService,sans-serif" font-weight="500" font-size="83" transform="matrix(1 0 0 1 721.522 250)">BVE</text><text fill="#3CAC04" font-family="MizoletBokutoh,MizoletBokutoh_MSFontService,sans-serif" font-weight="500" font-size="83" transform="matrix(1 0 0 1 1720.88 594)">Project</text><text fill="#3CAC04" font-family="DIN 2014 Light,DIN 2014 Light_MSFontService,sans-serif" font-weight="300" font-size="55" transform="matrix(1 0 0 1 1260.15 591)">AIZU</text><text fill="#3CAC04" font-family="DIN 2014 Light,DIN 2014 Light_MSFontService,sans-serif" font-weight="300" font-size="55" transform="matrix(1 0 0 1 1369.58 591)">-</text><text fill="#3CAC04" font-family="DIN 2014 Light,DIN 2014 Light_MSFontService,sans-serif" font-weight="300" font-size="55" transform="matrix(1 0 0 1 1386.77 591)">Line</text></g></svg>